# xmcd CD database file
#
# Track frame offsets:
#	150
#	14695
#	32235
#	53454
#	82952
#	121452
#	147804
#	166886
#	193968
#	217541
#	236974
#
# Disc length: 3404 seconds
#
# Revision: 5
# Processed by: cddbd v1.5.2PL0 Copyright (c) Steve Scherf et al.
# Submitted via: CDex 1.70beta2
#
DISCID=910d4a0b
DTITLE=Various Artist - Where Blues Meets Rock 3
DYEAR=1900
DGENRE=Blues
TTITLE0=omar and the howler- - bessie mae
TTITLE1=walter trout band - obstacles in my way
TTITLE2=dave hole - you got the blues
TTITLE3=michael katon - lucky, lucky, lucky
TTITLE4=bobby mack - hip shake
TTITLE5=the hamsters - hey baby
TTITLE6=rob tognoni - stones and colours
TTITLE7=joe taino - cold pillow
TTITLE8=carl verheyen - under saturn rings
TTITLE9=innes sibun - fun missing you
TTITLE10=jon tiven group - laugh
EXTD=
EXTT0=
EXTT1=
EXTT2=
EXTT3=
EXTT4=
EXTT5=
EXTT6=
EXTT7=
EXTT8=
EXTT9=
EXTT10=
PLAYORDER=
